{
    "asset" : {
        "generator" : "Khronos glTF Blender I/O v1.6.16",
        "version" : "2.0"
    },
    "scene" : 0,
    "scenes" : [
        {
            "extras" : {
                "glTF2ExportSettings" : {
                    "export_animations" : 1,
                    "export_cameras" : 0,
                    "export_colors" : 1,
                    "export_extras" : 1,
                    "export_force_sampling" : 0,
                    "export_format" : "GLTF_EMBEDDED",
                    "export_image_format" : "AUTO",
                    "export_lights" : 0,
                    "export_morph" : 1,
                    "export_normals" : 1,
                    "export_skins" : 1,
                    "export_texcoords" : 1,
                    "export_yup" : 1,
                    "use_selection" : 1
                }
            },
            "name" : "Scene",
            "nodes" : [
                0
            ]
        }
    ],
    "nodes" : [
        {
            "extras" : {
                "sparkar_optimization" : {
                    "InvertedReducePercentage" : 0
                },
                "spark_blender_addon" : 1
            },
            "mesh" : 0,
            "name" : "defaultMaterial"
        }
    ],
    "materials" : [
        {
            "doubleSided" : true,
            "name" : "DefaultMaterial",
            "normalTexture" : {
                "index" : 0
            },
            "occlusionTexture" : {
                "index" : 1
            },
            "pbrMetallicRoughness" : {
                "baseColorTexture" : {
                    "index" : 2
                },
                "metallicRoughnessTexture" : {
                    "index" : 1
                }
            }
        }
    ],
    "meshes" : [
        {
            "name" : "defaultMaterial",
            "primitives" : [
                {
                    "attributes" : {
                        "POSITION" : 0,
                        "NORMAL" : 1,
                        "TEXCOORD_0" : 2
                    },
                    "indices" : 3,
                    "material" : 0
                }
            ]
        }
    ],
    "textures" : [
        {
            "sampler" : 0,
            "source" : 0
        },
        {
            "sampler" : 0,
            "source" : 1
        },
        {
            "sampler" : 0,
            "source" : 2
        }
    ],
    "images" : [
        {
            "bufferView" : 4,
            "mimeType" : "image/png",
            "name" : "DefaultMaterial_normal"
        },
        {
            "bufferView" : 5,
            "mimeType" : "image/png",
            "name" : "DefaultMaterial_metallicRoughness"
        },
        {
            "bufferView" : 6,
            "mimeType" : "image/jpeg",
            "name" : "DefaultMaterial_baseColor"
        }
    ],
    "accessors" : [
        {
            "bufferView" : 0,
            "componentType" : 5126,
            "count" : 917,
            "max" : [
                -0.41309332847595215,
                0.9999983310699463,
                0.15225869417190552
            ],
            "min" : [
                -0.7176107168197632,
                -1.0000001192092896,
                -0.15225869417190552
            ],
            "type" : "VEC3"
        },
        {
            "bufferView" : 1,
            "componentType" : 5126,
            "count" : 917,
            "type" : "VEC3"
        },
        {
            "bufferView" : 2,
            "componentType" : 5126,
            "count" : 917,
            "type" : "VEC2"
        },
        {
            "bufferView" : 3,
            "componentType" : 5123,
            "count" : 3930,
            "type" : "SCALAR"
        }
    ],
    "bufferViews" : [
        {
            "buffer" : 0,
            "byteLength" : 11004,
            "byteOffset" : 0
        },
        {
            "buffer" : 0,
            "byteLength" : 11004,
            "byteOffset" : 11004
        },
        {
            "buffer" : 0,
            "byteLength" : 7336,
            "byteOffset" : 22008
        },
        {
            "buffer" : 0,
            "byteLength" : 7860,
            "byteOffset" : 29344
        },
        {
            "buffer" : 0,
            "byteLength" : 153577,
            "byteOffset" : 37204
        },
        {
            "buffer" : 0,
            "byteLength" : 627413,
            "byteOffset" : 190784
        },
        {
            "buffer" : 0,
            "byteLength" : 103239,
            "byteOffset" : 818200
        }
    ],
    "samplers" : [
        {
            "magFilter" : 9729,
            "minFilter" : 9987
        }
    ],
    "buffers" : [
        {
            "byteLength" : 921440,
            "uri" : "data:application/octet-stream;base64,"
        }
    ]
}
